# xmcd
#
# Track frame offsets:
#	150
#	15539
#	27192
#	39900
#	50495
#	64708
#	79930
#	93812
#	105323
#	118554
#	130451
#	148852
#	161564
#	178180
#	189025
#	202735
#
# Disc length: 2872 seconds
#
# Revision: 0
# Processed by: cddbd v1.4PL0 Copyright (c) Steve Scherf et al.
# Submitted via: dBpowerAMP V4.0
#
DISCID=c70b3610
DTITLE=Susan Mccann - Country Girl
DYEAR=1900
DGENRE=
TTITLE0=Thank god i'm a country girl
TTITLE1=When the new wears off our love
TTITLE2=I fall to pieces
TTITLE3=Close all the honky tonks
TTITLE4=Queen of hearts
TTITLE5=Radio Heart
TTITLE6=Rose garden
TTITLE7=Before the next teardrop falls
TTITLE8=Silver threads and golden needles
TTITLE9=Shutters and boards
TTITLE10=You seldom come to see me anymore
TTITLE11=It only hurts for a little while
TTITLE12=Sunday morning christian
TTITLE13=There's a built -in trouble maker in every man
TTITLE14=Out of reach of my open arms
TTITLE15=Am i that easy to forget
EXTD=
EXTT0=
EXTT1=
EXTT2=
EXTT3=
EXTT4=
EXTT5=
EXTT6=
EXTT7=
EXTT8=
EXTT9=
EXTT10=
EXTT11=
EXTT12=
EXTT13=
EXTT14=
EXTT15=
PLAYORDER=
